Coordinates
version=1
nRows=40
nColumns=23
inDegrees=yes
filters=@(data)LP15(trialStruct.Info.ViconCameraFrameRate,data)

Units are S.I. units (second, meters, Newtons, ...)
If the header above contains a line with 'inDegrees', this indicates whether rotational values are in degrees (yes) or radians (no).

endheader
time	sacrum_pitch	sacrum_roll	sacrum_yaw	sacrum_x	sacrum_y	sacrum_z	sacroiliac_r_flx	hip_r_flx	hip_r_add	hip_r_int	knee_r_flx	ankle_r_flx	ankle_r_add	ankle_r_int	sacroiliac_l_flx	hip_l_flx	hip_l_add	hip_l_int	knee_l_flx	ankle_l_flx	ankle_l_add	ankle_l_int	
3.15000000	25.46653113	-10.16699638	4.72359180	0.07392627	0.05035239	-0.00653634	3.69999987	19.51789352	-13.97609063	12.14661955	-144.46281831	37.69935508	-4.99999985	0.00000000	3.70000000	49.74700752	-15.34918964	2.39655843	-131.28117739	44.19748135	-4.99999985	0.00000000	
3.15500000	25.36372845	-9.99088082	5.10998910	0.07546593	0.05062184	-0.00608790	3.69999987	23.81344568	-14.81734330	12.51936496	-144.66937071	42.09616545	-4.99999985	0.00000000	3.70000000	48.56996379	-15.96559208	2.60364629	-131.62398232	44.62830628	-4.99999985	0.00000000	
3.16000000	25.31028534	-9.81667175	5.51046132	0.07701146	0.05091289	-0.00561203	3.69999987	28.32777966	-15.80890115	12.53431838	-144.32864234	45.52259123	-4.99999985	0.00000000	3.70000000	47.32952346	-16.48502263	2.92554557	-131.93234082	44.79811458	-4.99999985	0.00000000	
3.16500000	25.31424425	-9.66109300	5.93017315	0.07857025	0.05121929	-0.00511426	3.69999987	32.89316991	-16.94017242	12.13677604	-143.46616130	47.99731401	-4.99999985	0.00000000	3.70000000	46.03588424	-16.82972923	3.43155116	-132.25304599	44.66636190	-4.99999985	0.00000000	
3.17000000	25.37833671	-9.54043808	6.37406753	0.08014959	0.05153784	-0.00460145	3.69999987	37.32033070	-18.19109395	11.30142041	-142.10325858	49.61458175	-4.99999985	0.00000000	3.70000000	44.69379685	-16.96076836	4.16526414	-132.60907958	44.22441019	-4.99999985	0.00000000	
3.17500000	25.50052538	-9.46844832	6.84663920	0.08175599	0.05186751	-0.00408178	3.69999987	41.42380091	-19.52370431	10.03887077	-140.25977915	50.50472018	-4.99999985	0.00000000	3.70000000	43.30268737	-16.89111571	5.13010658	-132.99731882	43.50269400	-4.99999985	0.00000000	
3.18000000	25.67648179	-9.45567180	7.35179786	0.08339480	0.05220809	-0.00356400	3.69999987	45.04172779	-20.87210315	8.39677320	-137.95963571	50.79817454	-4.99999985	0.00000000	3.70000000	41.85815700	-16.68095270	6.28931210	-133.39388820	42.56430512	-4.99999985	0.00000000	
3.18500000	25.89591735	-9.50814924	7.89257229	0.08506930	0.05256026	-0.00305589	3.69999987	48.06138969	-22.15526098	6.45047873	-135.23674839	50.59955819	-4.99999985	0.00000000	3.70000000	40.36136698	-16.41536044	7.57986115	-133.76159351	41.48697846	-4.99999985	0.00000000	
3.19000000	26.13909432	-9.62584335	8.47165620	0.08678038	0.05292572	-0.00256233	3.69999987	50.43500416	-23.30077206	4.28869871	-132.13868877	49.97559483	-4.99999985	0.00000000	3.70000000	38.82742978	-16.17629203	8.93287335	-134.05963195	40.34236299	-4.99999985	0.00000000	
3.19500000	26.38005670	-9.80152451	9.09184191	0.08852746	0.05330609	-0.00208442	3.69999987	52.17340511	-24.25542734	2.00475758	-128.72721294	48.95671423	-4.99999985	0.00000000	3.70000000	37.28369051	-16.02313587	10.28980746	-134.25424343	39.18249820	-4.99999985	0.00000000	
3.20000000	26.59208513	-10.01971176	9.75405486	0.09030977	0.05370130	-0.00161992	3.69999987	53.32949022	-24.98107232	-0.30413852	-125.07729581	47.54883468	-4.99999985	0.00000000	3.70000000	35.76201679	-15.98724960	11.60698509	-134.32510852	38.03751806	-4.99999985	0.00000000	
3.20500000	26.75133477	-10.25731446	10.45515396	0.09212697	0.05410855	-0.00116416	3.69999987	53.98155824	-25.45074020	-2.54028737	-121.27601229	45.75061429	-4.99999985	0.00000000	3.70000000	34.29209644	-16.07563739	12.85441740	-134.26652993	36.92082829	-4.99999985	0.00000000	
3.21000000	26.83826772	-10.48641763	11.18819444	0.09397942	0.05452208	-0.00071013	3.69999987	54.21876583	-25.65428110	-4.61810732	-117.42136023	43.57125143	-4.99999985	0.00000000	3.70000000	32.89809601	-16.27700947	14.01612271	-134.08526032	35.83544719	-4.99999985	0.00000000	
3.21500000	26.83815681	-10.67695639	11.94325136	0.09586799	0.05493352	-0.00024874	3.69999987	54.13041245	-25.60544425	-6.47715142	-113.62111272	41.04436238	-4.99999985	0.00000000	3.70000000	31.59675457	-16.56861050	15.08834526	-133.79605661	34.77827581	-4.99999985	0.00000000	
3.22000000	26.74165711	-10.79821973	12.70702751	0.09779351	0.05533251	0.00023030	3.69999987	53.80003300	-25.34222518	-8.08653296	-109.99122241	38.23685474	-4.99999985	0.00000000	3.70000000	30.39552306	-16.92315196	16.07313039	-133.41635616	33.74273117	-4.99999985	0.00000000	
3.22500000	26.54485612	-10.82016955	13.46223566	0.09975620	0.05570740	0.00073687	3.69999987	53.30374464	-24.92034516	-9.44045457	-106.65240383	35.25201256	-4.99999985	0.00000000	3.70000000	29.29119115	-17.31356371	16.97098484	-132.96173862	32.72049892	-4.99999985	0.00000000	
3.23000000	26.24877368	-10.71553158	14.18822990	0.10175483	0.05604630	0.00127883	3.69999987	52.71048721	-24.40389926	-10.54996364	-103.72405417	32.22475033	-4.99999985	0.00000000	3.70000000	28.26949762	-17.71518171	17.77677996	-132.44267578	31.70150171	-4.99999985	0.00000000	
3.23500000	25.85939098	-10.46170810	14.86283131	0.10378596	0.05633860	0.00186123	3.69999987	52.08085266	-23.85802273	-11.43539623	-101.31392801	29.30746892	-4.99999985	0.00000000	3.70000000	27.30560126	-18.10628571	18.48019923	-131.86051857	30.67024706	-4.99999985	0.00000000	
3.24000000	25.38855974	-10.04201234	15.46454094	0.10584327	0.05657721	0.00248620	3.69999987	51.46247242	-23.34356523	-12.12102666	-99.50237683	26.64342199	-4.99999985	0.00000000	3.70000000	26.36503843	-18.46763746	19.07039950	-131.20117936	29.59718567	-4.99999985	0.00000000	
3.24500000	24.85477365	-9.44808869	15.97496578	0.10791748	0.05676011	0.00315325	3.69999987	50.88662261	-22.91310673	-12.63277807	-98.33077468	24.33697637	-4.99999985	0.00000000	3.70000000	25.40694656	-18.78153570	19.54284049	-130.43374411	28.42964781	-4.99999985	0.00000000	
3.25000000	24.28170916	-8.68228305	16.37938332	0.10999719	0.05688883	0.00385891	3.69999987	50.37434448	-22.60965006	-12.99633221	-97.80896111	22.45443383	-4.99999985	0.00000000	3.70000000	24.39359886	-19.03051783	19.90074339	-129.52549764	27.09725105	-4.99999985	0.00000000	
3.25500000	23.69492875	-7.75624342	16.66432912	0.11207029	0.05696449	0.00459607	3.69999987	49.94706571	-22.46664735	-13.23284868	-97.93372021	21.05750405	-4.99999985	0.00000000	3.70000000	23.30236050	-19.19571513	20.14860524	-128.46601080	25.53198077	-4.99999985	0.00000000	
3.26000000	23.12151322	-6.68868141	16.81661807	0.11412541	0.05698644	0.00535338	3.69999987	49.62456988	-22.50500726	-13.35664441	-98.69024612	20.20778376	-4.99999985	0.00000000	3.70000000	22.12741351	-19.25539473	20.28936392	-127.27723994	23.67610290	-4.99999985	0.00000000	
3.26500000	22.59119367	-5.50751662	16.82618196	0.11615279	0.05695501	0.00611551	3.69999987	49.40936897	-22.72448344	-13.37827852	-100.02990313	19.92497238	-4.99999985	0.00000000	3.70000000	20.87436649	-19.18633179	20.33083151	-126.00715180	21.47910992	-4.99999985	0.00000000	
3.27000000	22.13124064	-4.25364913	16.68996382	0.11814431	0.05687497	0.00686436	3.69999987	49.27787882	-23.09402713	-13.30826545	-101.85184752	20.16138417	-4.99999985	0.00000000	3.70000000	19.56195550	-18.97265387	20.29194428	-124.71988630	18.91666693	-4.99999985	0.00000000	
3.27500000	21.75847517	-2.97880046	16.41448990	0.12009432	0.05675636	0.00758133	3.69999987	49.18842809	-23.55333080	-13.15729947	-104.01340284	20.81733827	-4.99999985	0.00000000	3.70000000	18.22578399	-18.61712441	20.20203922	-123.48561697	16.01984756	-4.99999985	0.00000000	
3.28000000	21.47748605	-1.73495894	16.01571934	0.12200115	0.05661250	0.00824909	3.69999987	49.09501339	-24.03241229	-12.93488848	-106.36169431	21.76744661	-4.99999985	0.00000000	3.70000000	16.91477578	-18.13982691	20.09435400	-122.37548715	12.87584981	-4.99999985	0.00000000	
3.28500000	21.28342992	-0.56359996	15.51689709	0.12386812	0.05645706	0.00885228	3.69999987	48.95626848	-24.47551245	-12.64976695	-108.76245834	22.88193999	-4.99999985	0.00000000	3.70000000	15.68663208	-17.56517354	19.99971285	-121.46613130	9.60704907	-4.99999985	0.00000000	
3.29000000	21.16487266	0.50778983	14.94590239	0.12570298	0.05630235	0.00937803	3.69999987	48.73834835	-24.85111773	-12.31155213	-111.11310826	24.04506887	-4.99999985	0.00000000	3.70000000	14.60729896	-16.91199273	19.94507081	-120.84502622	6.35503606	-4.99999985	0.00000000	
3.29500000	21.10704450	1.46465155	14.33186156	0.12751630	0.05615885	0.00981678	3.69999987	48.41415584	-25.14930171	-11.93085812	-113.34302546	25.16816693	-4.99999985	0.00000000	3.70000000	13.74984566	-16.19292278	19.95364489	-120.60815734	3.27902123	-4.99999985	0.00000000	
3.30000000	21.09492596	2.30325685	13.70193212	0.12931980	0.05603528	0.01016289	3.69999987	47.96244521	-25.37508475	-11.51804901	-115.40883499	26.19292899	-4.99999985	0.00000000	3.70000000	13.18920115	-15.41908015	20.04390517	-120.84886528	0.56361962	-4.99999985	0.00000000	
3.30500000	21.11428122	3.02891029	13.07961561	0.13112491	0.05593903	0.01041476	3.69999987	47.36706407	-25.54023424	-11.08082136	-117.28676105	27.09067111	-4.99999985	0.00000000	3.70000000	12.99564030	-14.59774545	20.22967665	-121.64182851	-1.59119208	-4.99999985	0.00000000	
3.31000000	21.15104330	3.65466554	12.48414420	0.13294148	0.05587686	0.01057420	3.69999987	46.61553239	-25.65527095	-10.62163041	-118.96275360	27.86141815	-4.99999985	0.00000000	3.70000000	13.22969373	-13.72332286	20.52082008	-123.02673492	-2.99923818	-4.99999985	0.00000000	
3.31500000	21.19075614	4.19760216	11.92981615	0.13477671	0.05585517	0.01064571	3.69999987	45.69936729	-25.72420623	-10.13928221	-120.42556603	28.52623383	-4.99999985	0.00000000	3.70000000	13.93661603	-12.77924358	20.92161126	-124.99305590	-3.49669746	-4.99999985	0.00000000	
3.32000000	21.21943133	4.67259552	11.42472716	0.13663451	0.05587945	0.01063588	3.69999987	44.61632279	-25.74305965	-9.63461547	-121.66564461	29.11279891	-4.99999985	0.00000000	3.70000000	15.13912589	-11.75213615	21.42690239	-127.46815242	-2.93009766	-4.99999985	0.00000000	
3.32500000	21.22637179	5.08763741	10.96960288	0.13851594	0.05595317	0.01055266	3.69999987	43.37148515	-25.70229660	-9.11501996	-122.67808812	29.64189164	-4.99999985	0.00000000	3.70000000	16.83069268	-10.64438439	22.01768565	-130.31322899	-1.16091213	-4.99999985	0.00000000	
3.33000000	21.20843870	5.44335629	10.55827451	0.14042024	0.05607619	0.01040424	3.69999987	41.97532374	-25.59247289	-8.59432962	-123.46670629	30.11870366	-4.99999985	0.00000000	3.70000000	18.97420496	-9.47865377	22.65721644	-133.33244584	1.89861466	-4.99999985	0.00000000	
3.33500000	21.17371449	5.73581814	10.18027861	0.14234607	0.05624333	0.01019763	3.69999987	40.43936597	-25.41058211	-8.08854968	-124.04594066	30.52972946	-4.99999985	0.00000000	3.70000000	21.51134572	-8.29501770	23.28909893	-136.29778654	6.22760236	-4.99999985	0.00000000	
3.34000000	21.14238523	5.96050980	9.82409474	0.14429197	0.05644401	0.00993785	3.69999987	38.77189109	-25.16404646	-7.61057601	-124.43914494	30.84487480	-4.99999985	0.00000000	3.70000000	24.38448967	-7.14349585	23.83810799	-138.98342238	11.63167935	-4.99999985	0.00000000	
3.34500000	21.14521812	6.11625674	9.47881701	0.14625631	0.05666325	0.00962793	3.69999987	36.97564110	-24.87050424	-7.16591537	-124.67546003	31.02477456	-4.99999985	0.00000000	3.70000000	27.55692304	-6.07768198	24.21358620	-141.19668605	17.71266672	-4.99999985	0.00000000	
